<?xml version="1.0" encoding="UTF-8" standalone="no"?>
<svg
   height="24"
   viewBox="0 -960 960 960"
   width="24"
   version="1.1"
   id="svg1"
   fill="#fff"
   xmlns="http://www.w3.org/2000/svg">
  <path
     id="path1"
     d="m 240,-600 v 240 h 60 v -80 h 80 v 80 h 60 v -240 h -60 v 100 h -80 v -100 z m 320,0 c -11.33329,0 -20.849,3.81772 -28.51562,11.48438 C 523.81772,-580.849 520,-571.33329 520,-560 v 160 c 0,11.33329 3.81772,20.849 11.48438,28.51562 C 539.151,-363.81772 548.66671,-360 560,-360 h 30 v 60 h 60 v -60 h 30 c 11.33329,0 20.849,-3.81772 28.51562,-11.48438 C 716.18228,-379.151 720,-388.66671 720,-400 v -160 c 0,-11.33329 -3.81772,-20.849 -11.48438,-28.51562 C 700.849,-596.18228 691.33329,-600 680,-600 Z m 20,60 h 80 v 120 h -80 z" />
</svg>
